<?xml version="1.0" encoding="utf-8"?>
<!-- Generator: Adobe Illustrator 15.0.0, SVG Export Plug-In . SVG Version: 6.00 Build 0)  -->
<!DOCTYPE svg PUBLIC "-//W3C//DTD SVG 1.1//EN" "http://www.w3.org/Graphics/SVG/1.1/DTD/svg11.dtd">
<svg version="1.1" id="Layer_1" xmlns="http://www.w3.org/2000/svg" xmlns:xlink="http://www.w3.org/1999/xlink" x="0px" y="0px"
	 width="385.087px" height="107.173px" viewBox="0 0 385.087 107.173" enable-background="new 0 0 385.087 107.173"
	 xml:space="preserve">
<path fill="#AAA8D4" d="M27.129,104.739c-4.313,0.227-8.023,0.35-11.129,0.35c-5.009,0-8.58-0.309-10.712-0.907
	c-0.835-0.227-1.485-0.516-1.949-0.825c-0.186-0.154-0.348-0.277-0.485-0.422l-0.348-0.413c-0.652-0.804-1.091-3.279-1.322-7.456
	c-0.372-6.486-0.673-20.47-0.905-41.942C0.186,43.11,0.116,32.143,0.069,20.227C0.023,16.515,0,12.921,0,9.445V5.269
	c0-1.207,0.464-2.248,1.392-3.13C2.457,1.072,4.267,0.427,6.816,0.19c2.088-0.227,6.053-0.253,11.896-0.067
	c3.338,0.134,5.818,0.211,7.442,0.211v7.09c-1.668,0-4.218-0.042-7.651-0.139c-1.16-0.041-2.132-0.067-2.921-0.067
	c-1.16-0.046-2.205-0.072-3.13-0.072c-2.413,0-4.174,0.052-5.288,0.14c0,4.315,0,9.461,0,15.442
	c0.046,6.915,0.093,13.726,0.139,20.449h2.784c1.111-0.046,2.132-0.046,3.061,0c2.41,0,4.38,0.047,5.911,0.14l-0.487,7.095
	c-1.438-0.093-3.292-0.134-5.563-0.134h-2.921l-1.392,0.066H7.443c0.232,26.16,0.58,41.917,1.044,47.3
	c3.664,0.423,9.738,0.423,18.225,0L27.129,104.739"/>
<path fill="#AAA8D4" d="M35.477,97.294l5.912-4.033c0.974,1.434,2.132,2.414,3.478,2.919c1.067,0.382,2.228,0.484,3.478,0.351
	c1.903-0.268,3.687-1.104,5.357-2.506c1.622-1.434,2.782-3.135,3.478-5.084c1.436-4.115,1.552-9.271,0.348-15.438
	c-1.207-6.125-3.617-12.561-7.234-19.333c-1.717-3.295-3.295-6.584-4.73-9.879c-1.996-4.543-3.524-8.786-4.592-12.73
	c-2.967-10.751-2.526-18.614,1.323-23.579c1.9-2.46,3.988-4.197,6.259-5.213c1.764-0.789,3.571-1.14,5.427-1.047
	c4.453,0.139,8.069,2.294,10.852,6.466l-5.984,3.965c-0.554-0.876-1.25-1.619-2.085-2.222c-1.021-0.696-2.042-1.067-3.061-1.114
	c-1.949-0.093-3.872,1.093-5.775,3.547c-2.085,2.687-2.341,7.564-0.763,14.607c1.622,7.095,4.775,15.051,9.459,23.857
	c4.128,7.742,6.816,15.146,8.069,22.2c1.297,7.043,1.044,13.138-0.766,18.294c-1.16,3.238-3.083,5.972-5.772,8.198
	c-2.691,2.279-5.659,3.62-8.904,4.043c-0.743,0.082-1.416,0.123-2.016,0.123C42.316,103.687,38.398,101.562,35.477,97.294"/>
<path fill="#AAA8D4" d="M85.28,8.466c-0.604,4.084-0.858,15.814-0.766,35.201c1.113-0.093,2.111-0.186,2.99-0.278
	c1.253-0.093,2.39-0.186,3.408-0.279c2.645-0.232,4.708-0.417,6.192-0.557l0.835,7.095c-1.67,0.191-3.921,0.392-6.75,0.629
	c-2.132,0.18-4.359,0.366-6.677,0.551c0.046,4.594,0.093,10.042,0.139,16.342l0.07,3.836v3.754c0.046,3.114,0.07,5.373,0.07,6.816
	c0.186,12.705,0.255,20.305,0.209,22.821l-7.165-0.083c0.047-1.887,0-9.456-0.139-22.676c-0.418-35.652-0.395-58.216,0.069-67.678
	c0.232-4.496,0.604-7.533,1.114-9.11c0.322-1.021,0.925-1.784,1.807-2.295c1.392-0.882,4.406-1.438,9.044-1.67
	c3.478-0.186,7.791-0.186,12.937,0l-0.278,7.167C94.463,7.77,88.758,7.914,85.28,8.466"/>
<path fill="#AAA8D4" d="M122.564,97.077c1.761,0,3.521,0,5.285,0l0.975,0.082c0.232,0,0.464,0,0.696,0h0.696l-0.278,7.156h-0.557
	c-0.186-0.041-0.395-0.062-0.627-0.062h-0.766c-1.624-0.041-3.246-0.041-4.867,0c-5.195,0.042-9.601,0.319-13.218,0.835
	l-0.975-7.104c1.578-0.228,3.733-0.402,6.471-0.547c0-0.382,0-0.855,0-1.464v-0.836l0.069-0.824c0-1.641,0.021-2.98,0.07-4.053
	c0.044-3.65,0.113-7.085,0.209-10.281c0.183-9.519,0.322-18.182,0.415-26.021c0.371-23.229,0.51-38.511,0.417-45.838
	c-2.828,0.145-5.053,0.346-6.677,0.629l-0.975-7.095c3.896-0.557,8.533-0.861,13.914-0.907c1.761-0.046,3.478-0.046,5.146,0
	c0.557,0,1.067,0.031,1.532,0.072c0.183,0,0.348,0,0.487,0c0.09,0,0.16,0,0.209,0l-0.278,7.095h-1.81
	c-1.485-0.046-2.944-0.072-4.383-0.072c0.093,7.472-0.046,22.677-0.418,45.632c-0.137,7.881-0.275,16.502-0.415,25.876
	c-0.095,3.342-0.165,6.796-0.209,10.364c-0.046,1.351-0.095,2.712-0.139,4.094c0,0.567,0,1.176,0,1.825V97.077"/>
<path fill="#AAA8D4" d="M162.77,103.687c0-0.041-0.07-0.206-0.209-0.484l-0.139-0.412l-0.209-0.484
	c-0.417-1.073-0.858-2.166-1.323-3.279c-1.39-3.476-2.758-6.972-4.104-10.498c-4.313-11.221-7.791-21.017-10.434-29.422
	c0.093,4.961,0.186,9.116,0.278,12.447c0.418,16.376,0.626,27.39,0.626,33.041h-7.095c0-6.25-0.232-17.201-0.696-32.835l-0.139-5.62
	l-0.139-5.713c-0.093-4.447-0.162-8.273-0.209-11.47c-0.186-8.724-0.301-15.886-0.348-21.496
	c-0.046-11.039,0.232-18.113,0.835-21.218c0.557-2.732,1.784-4.243,3.687-4.521c1.714-0.273,3.826-0.021,6.329,0.763
	c2.735,0.882,5.264,2.182,7.582,3.898c4.963,3.8,7.861,8.858,8.696,15.164c0.926,7.049-0.302,13.107-3.687,18.155
	c-2.643,3.893-6.399,7.023-11.269,9.389c2.457,8.81,6.259,20.05,11.408,33.744c1.622,4.301,3.292,8.602,5.006,12.87
	c0.557,1.372,1.067,2.65,1.532,3.815c0.186,0.382,0.325,0.723,0.417,1.042c0.139,0.227,0.209,0.382,0.209,0.423L162.77,103.687
	 M146.213,9.028c-0.511,4.635-0.58,16.16-0.209,34.567c1.624-0.696,3.13-1.506,4.522-2.434c1.81-1.16,3.315-2.506,4.522-4.032
	c3.199-3.991,4.403-8.884,3.617-14.68c-0.511-3.939-2.251-7.188-5.218-9.735c-1.111-0.979-2.364-1.81-3.756-2.506
	C148.53,9.651,147.373,9.26,146.213,9.028z"/>
<path fill="#AAA8D4" d="M234.285,102.161c-3.707-3.104-6.285-9.127-7.719-18.088c-0.975-6.394-1.624-16.902-1.949-31.502
	c-0.325-16.231,0.464-28.106,2.366-35.613c2.274-9.09,6.585-14.329,12.938-15.721c4.548-0.979,8.601-0.165,12.174,2.434
	c3.985,2.964,6.213,7.394,6.677,13.287l-7.095,0.557c-0.325-3.712-1.599-6.398-3.826-8.069c-1.855-1.346-3.99-1.743-6.398-1.181
	c-3.713,0.784-6.332,4.656-7.863,11.612c-1.526,7.002-2.135,17.83-1.805,32.484c0.278,12.707,0.784,22.07,1.526,28.104
	c1.067,8.631,2.924,14.056,5.568,16.283c0.228,0.186,0.464,0.33,0.691,0.484c0.33,0.186,0.675,0.351,1.047,0.475
	c0.923,0.278,1.995,0.34,3.201,0.154c3.012-0.464,5.167-1.351,6.466-2.65c1.067-1.062,1.712-2.64,1.949-4.733l7.095,0.846
	c-0.882,7.693-5.702,12.22-14.468,13.562c-0.789,0.123-1.624,0.205-2.506,0.205C239.25,105.089,236.559,104.11,234.285,102.161"/>
<path fill="#AAA8D4" d="M297.025,104.955c0.144-7.661-0.114-16.53-0.764-26.646c-4.083-0.228-10.55-0.186-19.407,0.145
	c-1.388,13.859-2.089,22.356-2.089,25.522h-7.095c0-2.237,0.49-8.549,1.465-18.995c1.062-11.643,2.248-22.77,3.547-33.378
	c1.712-14.009,3.362-24.858,4.939-32.556c1.295-6.543,2.568-11.039,3.826-13.499c1.248-2.5,2.872-3.759,4.867-3.759
	c0.604,0,1.181,0.098,1.738,0.278c0.742,0.284,1.412,0.748,2.021,1.392c3.847,3.893,7.302,18.361,10.359,43.404
	c2.737,22.68,3.965,42.077,3.687,58.226L297.025,104.955 M277.622,71.286c8.343-0.279,14.371-0.32,18.083-0.155
	c-2.269-29.294-5.311-49.141-9.111-59.53c-1.392,4.543-2.97,12.911-4.733,25.11C280.428,46.725,279.015,58.251,277.622,71.286z"/>
<path fill="#AAA8D4" d="M343.008,107.173l-19.825-50.569c0,26.294-0.372,42.01-1.114,47.166l-7.095-0.979
	c0.696-4.867,1.041-21.254,1.041-49.177c0-27.916-0.345-44.817-1.041-50.711l7.095-0.835c0.511,4.176,0.856,16.098,1.047,35.758
	c3.893-7.234,7.739-14.401,11.545-21.496c4.311-7.977,7.141-13.169,8.486-15.582l6.26,3.475c-1.346,2.372-4.687,8.513-10.019,18.438
	c-0.975,1.805-2.108,3.893-3.408,6.259c-0.789,1.48-1.902,3.553-3.336,6.193c-2.877,5.332-4.847,8.992-5.914,10.993l22.883,58.489
	L343.008,107.173"/>
<path fill="#AAA8D4" d="M385.087,104.739c-4.311,0.227-8.023,0.35-11.127,0.35c-5.007,0-8.58-0.309-10.715-0.907
	c-0.83-0.227-1.484-0.516-1.943-0.825c-0.186-0.154-0.351-0.277-0.49-0.422l-0.346-0.413c-0.649-0.804-1.093-3.279-1.324-7.456
	c-0.372-6.486-0.671-20.47-0.902-41.942c-0.094-10.013-0.165-20.98-0.207-32.896c-0.046-3.712-0.072-7.306-0.072-10.782V5.269
	c0-1.207,0.465-2.248,1.393-3.13c1.067-1.067,2.872-1.712,5.424-1.949c2.089-0.227,6.054-0.253,11.896-0.067
	c3.342,0.134,5.821,0.211,7.445,0.211v7.09c-1.67,0-4.223-0.042-7.651-0.139c-1.16-0.041-2.135-0.067-2.924-0.067
	c-1.16-0.046-2.201-0.072-3.13-0.072c-2.413,0-4.171,0.052-5.284,0.14c0,4.315,0,9.461,0,15.442
	c0.046,6.915,0.092,13.726,0.139,20.449h2.779c1.113-0.046,2.135-0.046,3.062,0c2.408,0,4.383,0.047,5.914,0.14l-0.489,7.095
	c-1.438-0.093-3.295-0.134-5.563-0.134h-2.924l-1.393,0.066h-1.247c0.231,26.16,0.577,41.917,1.041,47.3
	c3.661,0.423,9.74,0.423,18.222,0L385.087,104.739"/>
<path fill="#AAA8D4" d="M186.255,92.014c0,0-0.822-0.794-2.459-2.413c-1.482-1.516-2.65-3.568-3.501-6.198
	c-0.915-2.732-1.34-5.743-1.276-9.022c0.157-7.817,2.82-15.139,7.992-21.953l0.333-0.422l0.283-0.428
	c-3.942-12.771-4.746-22.321-2.413-28.663c1.482-3.939,3.72-5.945,6.716-6.007c2.9-0.057,5.092,1.609,6.577,5.017
	c0.598,1.356,1.041,2.82,1.319,4.398c0.443,2.14,0.588,4.388,0.429,6.714c-0.408,6.274-2.852,12.725-7.33,19.346l0.851,2.413
	c1.196,3.498,3.468,8.387,6.814,14.666l0.753-2.412l0.758-2.362l0.521-1.753l0.521-1.753c0.407-1.289,0.789-2.423,1.135-3.403
	l4.543,1.609c-0.475,1.351-1.187,3.578-2.13,6.661l-0.665,2.228l-0.712,2.279c-0.567,1.691-1.104,3.207-1.604,4.527
	c0.882,1.516,1.8,3.072,2.743,4.691c0.727,1.248,1.479,2.527,2.269,3.785c0.284,0.505,0.572,0.979,0.851,1.454
	c0.222,0.36,0.459,0.722,0.712,1.093l0.613,1l-4.068,2.599c-0.03-0.071-0.093-0.154-0.186-0.288
	c-0.098-0.186-0.227-0.382-0.381-0.608c-0.346-0.599-0.722-1.228-1.135-1.888c-1.258-2.083-2.526-4.176-3.784-6.301
	c-2.114,4.26-4.667,7.528-7.662,9.797c-1.418,1.072-2.916,1.599-4.494,1.599C187.232,92.014,186.255,92.014,186.255,92.014
	 M183.796,74.946c-0.033,5.197,1.104,8.951,3.406,11.262c0.691,0.69,1.372,1.041,2.032,1.041c0.474-0.041,0.995-0.268,1.562-0.66
	c2.962-2.289,5.504-5.991,7.619-11.116c-4.293-7.724-7.258-13.818-8.895-18.263C185.701,62.881,183.796,68.801,183.796,74.946z
	 M190.938,22.397c-0.475,0.531-0.869,1.264-1.184,2.171c-1.735,4.672-1.292,11.89,1.325,21.666c2.839-5.079,4.287-9.982,4.354-14.71
	c0.03-1.671-0.113-3.279-0.428-4.826c-0.127-0.567-0.284-1.135-0.475-1.702c-0.126-0.407-0.269-0.804-0.426-1.186
	c-0.632-1.413-1.307-2.124-2.034-2.124C191.726,21.717,191.347,21.954,190.938,22.397z"/>
</svg>
